<svg version="1.2" xmlns="http://www.w3.org/2000/svg" viewBox="0 0 1920 469" width="1920" height="469"><defs><clipPath clipPathUnits="userSpaceOnUse" id="cp1"><path d="m0 0h1920v469h-1920z"/></clipPath></defs><style>.a{fill:#009cff}.b{opacity:.1;fill:none;stroke:#fff;stroke-miterlimit:100;stroke-width:100}</style><g clip-path="url(#cp1)"><path class="a" d="m0 0h1920v469h-1920z"/><path class="b" d="m1522.7 241.6c67.4 150.3 157.5 265.2 252.7 269.4 126-2.9 293.3-249.9 282.1-410.6-29.3-154.2-288.2-154.1-410.5-129-153.4 31.5-181.9 119-124.3 270.2z"/><path class="b" d="m-257.4 228.3c67.3-150.2 157.4-265.1 252.5-269.3 126 2.9 293.1 249.9 281.9 410.5-29.2 154.2-287.9 154.1-410.2 129-153.3-31.5-181.8-119-124.2-270.2z"/></g></svg>